<svg width="1746" height="251" viewBox="0 0 1746 251" fill="none" xmlns="http://www.w3.org/2000/svg">
<g clip-path="url(#clip0_2489_4747)">
<path d="M507.478 151.534L545.882 52.6954L582.914 151.534H507.478ZM421.07 244.882H469.075L491.02 188.599H596.63L619.947 244.882H669.323L565.084 0.530518H528.052L421.07 244.882ZM674.809 244.882H861.342V206.444H725.557L858.599 40.3405V0.530518H676.181V38.9678H806.479L673.438 206.444V244.882H674.809ZM879.172 244.882H1046.5V206.444H921.69V137.806H1034.16V100.742H921.69V38.9678H1039.65V0.530518H879.172V244.882ZM1064.33 244.882H1108.22V55.4409H1109.59L1224.81 244.882H1279.67V0.530518H1235.78V183.108H1234.41L1121.94 0.530518H1064.33V244.882ZM1296.13 244.882H1382.54C1559.47 244.882 1563.58 0.530518 1382.54 0.530518H1296.13V244.882ZM1582.78 151.534L1621.19 52.6954L1658.22 151.534H1582.78ZM1497.75 244.882H1545.75L1567.7 188.599H1673.31L1696.62 244.882H1746L1640.39 0.530518H1603.36L1497.75 244.882ZM305.859 244.882H349.749V141.925H425.185V104.86H348.377V37.595H462.217V0.530518H305.859V147.416H337.405L305.859 154.28V244.882Z" fill="white"/>
<path fill-rule="evenodd" clip-rule="evenodd" d="M128.927 38.0645C78.1791 38.0645 41.1469 72.3835 41.1469 125.921C41.1469 179.459 79.5507 212.405 130.298 212.405C161.844 212.405 185.161 201.423 201.62 179.459L174.189 157.495C164.588 171.222 150.872 179.459 130.298 179.459C105.61 179.459 85.0369 161.613 83.6654 138.276H209.849C212.592 84.7383 186.533 38.0645 128.927 38.0645ZM82.2938 108.075C83.6654 84.7384 104.239 68.2652 127.555 68.2652C154.987 68.2652 165.959 87.4839 165.959 108.075H82.2938ZM124.812 1C56.2341 1 0 57.2831 0 125.921C0 194.559 56.2341 250.842 124.812 250.842C186.533 250.842 237.28 206.914 246.881 147.885H429.299C441.643 147.885 451.244 138.276 451.244 125.921C451.244 113.566 441.643 103.957 429.299 103.957H246.881C237.28 44.9283 185.161 1 124.812 1Z" fill="white"/>
<path d="M1474.43 132.315C1468.94 130.943 1460.71 135.061 1463.46 139.179L1459.34 141.925V137.806C1463.46 137.806 1464.83 128.197 1460.71 124.079C1456.6 126.824 1453.86 135.061 1457.97 137.806V141.925L1455.23 137.806C1457.97 133.688 1452.49 126.824 1447 126.824C1445.63 132.315 1449.74 139.179 1453.86 137.806L1456.6 140.552H1452.49H1451.11V141.925L1457.97 143.297L1464.83 144.67H1466.2V143.297H1462.09L1464.83 140.552C1467.57 143.297 1474.43 136.434 1474.43 132.315ZM1468.94 154.279C1464.83 151.534 1455.23 154.279 1456.6 158.398L1451.11 159.771L1452.49 155.652C1456.6 157.025 1460.71 147.416 1457.97 143.297C1452.49 144.67 1448.37 152.907 1451.11 155.652L1449.74 159.771L1448.37 154.279C1452.49 151.534 1448.37 143.297 1442.88 141.925C1440.14 146.043 1442.88 155.652 1447 154.279L1448.37 158.398L1444.26 157.025H1442.88V158.398L1448.37 161.143L1453.86 163.889H1455.23V162.516L1451.11 161.143L1455.23 159.771C1459.34 163.889 1467.57 159.771 1468.94 154.279ZM1357.85 158.398C1355.1 159.771 1353.73 163.889 1352.36 168.007C1349.62 165.262 1346.87 162.516 1344.13 162.516C1344.13 165.262 1345.5 169.38 1346.87 173.498C1346.87 173.498 1346.87 173.498 1345.5 173.498C1346.87 174.871 1348.25 176.244 1349.62 177.616C1350.99 177.616 1350.99 177.616 1352.36 177.616C1353.73 176.244 1356.48 174.871 1357.85 172.125C1360.59 168.007 1360.59 161.143 1357.85 158.398ZM1342.76 161.143C1342.76 159.771 1341.39 159.771 1340.02 159.771C1338.65 159.771 1338.65 161.143 1338.65 162.516C1338.65 163.889 1340.02 163.889 1341.39 163.889C1342.76 163.889 1342.76 162.516 1342.76 161.143ZM1346.87 159.771C1346.87 158.398 1345.5 158.398 1344.13 158.398C1342.76 158.398 1342.76 159.771 1342.76 161.143C1342.76 162.516 1344.13 162.516 1345.5 162.516C1346.87 161.143 1348.25 159.771 1346.87 159.771ZM1338.65 177.616C1340.02 176.244 1340.02 176.244 1342.76 173.498C1340.02 173.498 1337.27 174.871 1335.9 174.871C1337.27 176.244 1337.27 177.616 1338.65 177.616ZM1393.51 60.9318L1385.28 19.749C1383.91 21.1218 1382.54 21.1218 1382.54 22.4945C1381.16 23.8673 1379.79 23.8673 1379.79 25.2401H1378.42C1377.05 25.2401 1375.68 25.2401 1374.31 23.8673C1372.93 23.8673 1372.93 23.8673 1371.56 23.8673L1382.54 62.3046H1375.68L1357.85 27.9856C1357.85 29.3583 1356.48 29.3583 1356.48 30.7311C1356.48 32.1039 1355.1 32.1039 1355.1 33.4766C1355.1 33.4766 1355.1 34.8494 1353.73 34.8494H1352.36C1350.99 34.8494 1349.62 34.8494 1348.25 34.8494C1346.88 34.8494 1345.5 34.8494 1345.5 34.8494L1363.33 60.9318H1352.36L1350.99 59.5591L1334.53 44.4587V45.8315C1334.53 47.2042 1334.53 49.9497 1334.53 51.3225C1334.53 51.3225 1333.16 51.3225 1333.16 52.6953C1331.79 52.6953 1330.42 54.068 1329.04 54.068C1327.67 54.068 1327.67 54.068 1327.67 55.4408L1344.13 67.7956C1345.5 66.4229 1346.88 66.4229 1348.25 66.4229V70.5411V71.9139V81.5232L1341.39 78.7777C1340.02 78.7777 1340.02 80.1505 1338.65 80.1505C1338.65 81.5232 1337.27 82.896 1335.9 82.896H1334.53C1335.9 84.2687 1335.9 87.0142 1337.27 89.7598H1338.65C1341.39 88.387 1344.13 85.6415 1346.87 85.6415V89.7598C1346.87 89.7598 1346.87 91.1325 1345.5 91.1325H1346.87V97.9963H1341.39C1340.02 99.3691 1340.02 99.3691 1338.65 99.3691C1338.65 100.742 1337.27 102.115 1335.9 102.115C1335.9 102.115 1335.9 102.115 1334.53 102.115C1334.53 102.115 1334.53 103.487 1335.9 103.487H1346.87V122.706C1346.87 129.57 1348.25 136.434 1350.99 141.925C1348.25 143.297 1345.5 146.043 1344.13 150.161C1342.76 146.043 1340.02 143.297 1337.27 141.925C1335.9 144.67 1337.27 148.788 1338.65 152.907C1334.53 151.534 1330.42 151.534 1327.67 151.534C1329.04 155.652 1337.27 159.771 1341.39 159.771C1341.39 158.398 1341.39 158.398 1341.39 157.025C1341.39 157.025 1342.76 155.652 1344.13 155.652C1344.13 155.652 1345.5 155.652 1345.5 157.025V158.398C1345.5 158.398 1345.5 158.398 1346.87 158.398C1346.87 158.398 1346.87 158.398 1345.5 157.025V155.652C1345.5 154.279 1346.88 154.279 1348.25 154.279C1349.62 154.279 1349.62 154.279 1349.62 155.652C1352.36 152.907 1353.73 147.416 1353.73 143.297C1361.96 159.771 1378.42 170.753 1397.62 170.753C1425.05 170.753 1447 148.788 1447 121.333V107.606C1447 113.097 1452.49 118.588 1456.6 115.842L1459.34 118.588H1455.23C1455.23 118.588 1453.86 118.588 1453.86 119.96C1453.86 119.96 1453.86 121.333 1455.23 121.333H1462.09H1468.94C1468.94 121.333 1470.32 121.333 1470.32 119.96C1470.32 119.96 1470.32 118.588 1468.94 118.588H1464.83L1467.57 115.842C1471.69 118.588 1477.17 110.351 1477.17 106.233C1471.69 104.86 1464.83 111.724 1467.57 115.842L1463.46 119.96V115.842C1467.57 114.469 1467.57 104.86 1462.09 102.115C1457.97 104.86 1456.6 114.469 1460.71 115.842V119.96L1456.6 115.842C1459.34 111.724 1452.49 106.233 1447 106.233C1447 106.233 1447 106.233 1447 107.606V103.487H1459.34L1460.71 102.115L1462.09 103.487H1477.17C1478.55 102.115 1478.55 100.742 1478.55 100.742C1479.92 99.3691 1479.92 97.9963 1481.29 96.6236H1477.17H1470.32C1468.94 97.9963 1467.57 97.9963 1466.2 97.9963H1464.83L1463.46 99.3691H1466.2C1466.2 99.3691 1467.57 99.3691 1467.57 100.742C1467.57 100.742 1467.57 102.115 1466.2 102.115H1452.49C1452.49 102.115 1451.11 102.115 1451.11 100.742C1451.11 100.742 1451.11 99.3691 1452.49 99.3691H1455.23L1453.86 97.9963H1452.49H1451.11H1444.26V88.387C1444.26 93.8781 1449.74 99.3691 1453.86 96.6236L1456.6 99.3691H1452.49C1452.49 99.3691 1451.11 99.3691 1451.11 100.742C1451.11 100.742 1451.11 102.115 1452.49 102.115H1459.34H1466.2C1466.2 102.115 1467.57 102.115 1467.57 100.742C1467.57 100.742 1467.57 99.3691 1466.2 99.3691H1462.09L1464.83 96.6236C1468.94 99.3691 1474.43 91.1325 1474.43 87.0143C1468.94 85.6415 1462.09 92.5053 1464.83 96.6236L1460.71 100.742V96.6236C1464.83 95.2508 1464.83 85.6415 1459.34 82.896C1455.23 85.6415 1453.86 95.2508 1457.97 96.6236V100.742L1453.86 96.6236C1456.6 92.5053 1449.74 87.0143 1444.26 87.0143C1444.26 87.0143 1444.26 87.0143 1444.26 88.387V87.0143H1445.63C1448.37 87.0143 1451.11 88.387 1452.49 89.7598H1453.86C1453.86 87.0142 1455.23 84.2687 1457.97 82.896C1459.34 84.2687 1460.71 85.6415 1460.71 88.387L1477.17 84.2687C1474.43 82.896 1473.06 81.5232 1471.69 78.7777V77.4049V76.0322C1471.69 74.6594 1471.69 73.2867 1473.06 71.9139C1473.06 73.2867 1471.69 76.0322 1470.32 77.4049C1468.94 78.7777 1466.2 80.1505 1464.83 80.1505H1463.46L1462.09 81.5232H1464.83C1464.83 81.5232 1466.2 81.5232 1466.2 82.896C1466.2 82.896 1466.2 84.2687 1464.83 84.2687H1451.11C1451.11 84.2687 1449.74 84.2687 1449.74 82.896C1449.74 82.896 1449.74 81.5232 1451.11 81.5232H1453.86L1452.49 80.1505H1451.11C1451.11 80.1505 1451.11 80.1505 1449.74 80.1505L1442.88 82.896V70.5411C1442.88 76.0322 1448.37 81.5232 1452.49 78.7777L1455.23 81.5232H1451.11C1451.11 81.5232 1449.74 81.5232 1449.74 82.896C1449.74 82.896 1449.74 84.2687 1451.11 84.2687H1457.97H1464.83C1464.83 84.2687 1466.2 84.2687 1466.2 82.896C1466.2 82.896 1466.2 81.5232 1464.83 81.5232H1460.71L1463.46 78.7777C1467.57 81.5232 1473.06 73.2867 1473.06 69.1684C1467.57 67.7956 1460.71 74.6594 1463.46 78.7777L1459.34 82.896V78.7777C1463.46 77.4049 1463.46 67.7956 1457.97 65.0501C1453.86 67.7956 1452.49 77.4049 1456.6 78.7777V82.896L1452.49 78.7777C1455.23 74.6594 1448.37 69.1684 1442.88 69.1684C1442.88 69.1684 1442.88 69.1684 1442.88 70.5411V69.1684H1444.26C1445.63 69.1684 1447 69.1684 1448.37 70.5411L1464.83 58.1863C1464.83 58.1863 1463.46 58.1863 1463.46 56.8135C1462.09 56.8135 1460.71 55.4408 1459.34 55.4408C1459.34 55.4408 1457.97 55.4408 1457.97 54.068V52.6953V51.3225C1457.97 49.9497 1457.97 48.577 1457.97 47.2042L1440.14 63.6773H1429.17L1447 37.5949C1445.63 37.5949 1444.26 37.5949 1442.88 37.5949C1441.51 37.5949 1440.14 37.5949 1440.14 37.5949C1438.77 37.5949 1438.77 37.5949 1438.77 37.5949C1438.77 37.5949 1438.77 36.2221 1437.4 36.2221C1436.03 34.8494 1436.03 33.4766 1434.66 32.1039V30.7311L1416.82 63.6773H1409.97L1420.94 25.2401C1418.2 25.2401 1415.45 26.6128 1412.71 26.6128C1412.71 26.6128 1411.34 26.6128 1411.34 25.2401L1409.97 23.8673C1408.6 22.4945 1407.22 22.4945 1407.22 21.1218L1398.99 62.3046H1393.51V60.9318ZM1330.42 104.86C1327.67 104.86 1326.3 103.487 1326.3 102.115C1324.93 100.742 1323.56 99.3691 1322.19 97.9963L1309.84 96.6236C1309.84 96.6236 1309.84 97.9963 1311.21 97.9963C1311.21 99.3691 1312.59 99.3691 1312.59 99.3691C1312.59 99.3691 1312.59 99.3691 1312.59 100.742C1312.59 102.115 1313.96 102.115 1315.33 104.86H1330.42ZM1330.42 82.896C1327.67 82.896 1326.3 81.5232 1326.3 80.1505C1323.56 78.7777 1319.44 74.6594 1318.07 70.5411L1315.33 69.1684C1315.33 70.5411 1315.33 71.9139 1316.7 73.2867C1316.7 74.6594 1316.7 76.0322 1318.07 77.4049L1316.7 78.7777C1315.33 80.1505 1315.33 80.1505 1313.96 81.5232L1312.59 82.896L1329.04 87.0143C1329.04 87.0143 1329.04 84.2687 1330.42 82.896ZM1331.79 80.1505C1331.79 78.7777 1330.42 78.7777 1330.42 78.7777C1329.04 78.7777 1329.04 80.1505 1329.04 80.1505C1329.04 81.5232 1330.42 81.5232 1330.42 81.5232C1330.42 81.5232 1331.79 81.5232 1331.79 80.1505ZM1337.27 80.1505C1337.27 78.7777 1335.9 78.7777 1335.9 78.7777C1334.53 78.7777 1334.53 80.1505 1334.53 80.1505C1334.53 81.5232 1335.9 81.5232 1335.9 81.5232C1335.9 81.5232 1337.27 81.5232 1337.27 80.1505ZM1337.27 133.688C1335.9 129.57 1333.16 126.824 1330.42 125.452C1329.04 128.197 1329.04 132.315 1330.42 136.434C1326.3 135.061 1322.19 133.688 1319.44 133.688C1320.82 137.806 1327.67 143.297 1331.79 144.67C1331.79 143.297 1331.79 143.297 1331.79 143.297C1331.79 143.297 1333.16 141.925 1334.53 143.297L1335.9 144.67V146.043C1335.9 146.043 1335.9 146.043 1337.27 146.043C1337.27 146.043 1337.27 146.043 1337.27 144.67C1337.27 143.297 1338.65 141.925 1340.02 141.925C1340.02 141.925 1341.39 141.925 1341.39 143.297C1344.13 139.179 1346.87 132.315 1346.87 128.197C1342.76 126.824 1340.02 129.57 1337.27 133.688ZM1335.9 141.925C1335.9 140.552 1334.53 140.552 1334.53 140.552C1333.16 140.552 1333.16 141.925 1333.16 141.925C1333.16 143.297 1334.53 143.297 1334.53 143.297C1334.53 144.67 1335.9 143.297 1335.9 141.925ZM1340.02 140.552C1340.02 139.179 1338.65 139.179 1338.65 139.179C1337.27 139.179 1337.27 140.552 1337.27 140.552C1337.27 141.925 1338.65 141.925 1338.65 141.925C1340.02 143.297 1340.02 141.925 1340.02 140.552ZM1335.9 92.5053C1335.9 88.387 1334.53 84.2687 1331.79 82.896C1329.04 84.2687 1329.04 89.7598 1327.67 93.8781C1324.93 91.1325 1320.82 88.387 1316.7 88.387C1316.7 92.5053 1322.19 99.3691 1326.3 102.115C1326.3 100.742 1326.3 100.742 1327.67 100.742H1329.04C1330.42 100.742 1330.42 102.115 1330.42 102.115V103.487C1330.42 103.487 1330.42 103.487 1331.79 103.487C1331.79 103.487 1331.79 103.487 1331.79 102.115C1331.79 100.742 1331.79 100.742 1333.16 100.742C1334.53 100.742 1334.53 100.742 1335.9 100.742L1337.27 102.115C1341.39 99.3691 1346.87 92.5053 1345.5 88.387C1342.76 88.387 1338.65 89.7598 1335.9 92.5053ZM1331.79 100.742C1331.79 99.3691 1330.42 99.3691 1330.42 99.3691C1329.04 99.3691 1329.04 100.742 1329.04 100.742C1329.04 102.115 1330.42 102.115 1330.42 102.115C1330.42 103.487 1331.79 102.115 1331.79 100.742ZM1337.27 100.742C1337.27 99.3691 1335.9 99.3691 1335.9 99.3691C1334.53 99.3691 1334.53 100.742 1334.53 100.742C1334.53 102.115 1335.9 102.115 1335.9 102.115C1335.9 103.487 1337.27 102.115 1337.27 100.742ZM1335.9 114.469C1335.9 110.351 1334.53 106.233 1331.79 104.86C1329.04 107.606 1329.04 111.724 1327.67 115.842C1324.93 113.097 1320.82 110.351 1316.7 110.351C1316.7 114.469 1322.19 121.333 1326.3 124.079C1326.3 122.706 1326.3 122.706 1327.67 122.706C1327.67 122.706 1329.04 122.706 1330.42 122.706L1331.79 124.079V125.452C1331.79 125.452 1331.79 125.452 1333.16 125.452C1333.16 125.452 1333.16 125.452 1333.16 124.079C1333.16 122.706 1333.16 122.706 1334.53 122.706C1335.9 122.706 1335.9 122.706 1337.27 122.706C1338.65 122.706 1338.65 124.079 1338.65 124.079C1342.76 121.333 1348.25 114.469 1346.87 110.351C1342.76 108.978 1338.65 110.351 1335.9 114.469ZM1331.79 122.706C1331.79 121.333 1330.42 121.333 1330.42 121.333C1329.04 121.333 1329.04 122.706 1329.04 122.706C1329.04 124.079 1330.42 124.079 1330.42 124.079L1331.79 122.706ZM1337.27 122.706C1337.27 121.333 1335.9 121.333 1335.9 121.333C1334.53 121.333 1334.53 122.706 1334.53 122.706C1334.53 124.079 1335.9 124.079 1335.9 124.079L1337.27 122.706ZM1335.9 71.9139C1335.9 67.7956 1334.53 63.6773 1331.79 62.3046C1329.04 63.6773 1329.04 69.1684 1327.67 73.2867C1324.93 70.5411 1320.82 67.7956 1316.7 67.7956C1316.7 71.9139 1322.19 78.7777 1326.3 81.5232C1326.3 80.1505 1327.67 80.1505 1327.67 78.7777H1329.04C1330.42 78.7777 1330.42 80.1505 1330.42 81.5232V82.896C1330.42 82.896 1330.42 82.896 1331.79 82.896C1331.79 82.896 1331.79 82.896 1331.79 81.5232C1331.79 80.1505 1333.16 80.1505 1333.16 78.7777C1334.53 78.7777 1335.9 80.1505 1335.9 81.5232C1340.02 78.7777 1345.5 71.9139 1344.13 67.7956C1342.76 66.4229 1338.65 69.1684 1335.9 71.9139ZM1352.36 198.208C1341.39 191.344 1333.16 183.107 1324.93 173.498V181.735H1316.7C1329.04 198.208 1346.87 211.935 1366.08 217.426L1371.56 206.444L1368.82 202.326C1374.31 203.699 1379.79 205.072 1385.28 206.444L1390.77 194.09L1383.91 189.971C1386.65 189.971 1390.76 191.344 1394.88 191.344C1398.99 191.344 1401.74 191.344 1405.85 189.971L1398.99 195.462L1404.48 207.817C1409.97 207.817 1415.45 206.444 1420.94 203.699L1418.2 207.817L1423.68 218.799C1442.88 211.935 1460.71 199.581 1473.06 183.107H1466.2V174.871C1459.34 184.48 1449.74 194.09 1438.77 199.581L1453.86 181.735L1451.11 178.989C1452.49 178.989 1455.23 177.616 1455.23 176.244C1452.49 172.125 1442.88 170.753 1441.51 176.244H1436.03L1438.77 173.498C1442.88 176.244 1448.37 168.007 1447 163.889C1441.51 162.516 1434.66 169.38 1437.4 173.498L1434.66 176.244V170.753C1438.77 169.38 1437.4 159.771 1433.28 157.025C1429.17 159.771 1427.8 169.38 1433.28 170.753V174.871L1430.54 172.125H1429.17V173.498L1434.66 177.616L1438.77 180.362C1431.91 185.853 1425.05 188.598 1418.2 191.344L1434.66 178.989L1426.43 170.753C1416.82 176.244 1405.85 180.362 1394.88 180.362C1383.91 180.362 1372.93 176.244 1363.33 170.753L1355.1 178.989L1371.56 191.344C1360.59 187.226 1352.36 181.735 1344.13 173.498L1337.27 181.735L1338.65 183.107L1352.36 198.208Z" fill="#00367C"/>
<path d="M1425.05 118.588C1422.31 113.097 1415.45 113.097 1409.97 117.215C1407.22 119.96 1400.37 122.706 1398.99 119.96C1398.99 117.215 1401.74 117.215 1401.74 118.588C1403.11 118.588 1403.11 117.215 1403.11 117.215C1404.48 117.215 1405.85 115.842 1405.85 114.469C1404.48 114.469 1401.74 114.469 1398.99 114.469C1397.62 114.469 1397.62 115.842 1396.25 115.842C1393.51 121.333 1398.99 122.706 1401.74 122.706C1408.6 121.333 1409.97 117.215 1414.08 115.842C1422.31 114.469 1422.31 124.079 1415.45 124.079H1393.51C1390.76 124.079 1388.02 121.333 1386.65 117.215C1386.65 115.842 1386.65 115.842 1385.28 114.469V113.097H1379.79L1372.93 114.469C1372.93 115.842 1372.93 117.215 1372.93 117.215H1374.31C1375.68 118.588 1374.31 118.588 1374.31 118.588H1372.93C1372.93 119.96 1372.93 121.333 1374.31 121.333L1375.68 119.96C1377.05 119.96 1377.05 121.333 1377.05 121.333C1377.05 122.706 1375.68 122.706 1374.31 122.706H1367.45C1366.08 122.706 1364.71 119.96 1364.71 119.96C1363.33 121.333 1363.33 122.706 1363.33 124.079L1370.19 126.824L1371.56 129.57H1375.68C1378.42 129.57 1379.79 130.943 1378.42 133.688C1377.05 136.434 1374.31 140.552 1371.56 140.552V143.297H1377.05L1378.42 141.925C1379.79 141.925 1382.54 140.552 1383.91 139.179C1383.91 137.806 1386.65 136.434 1388.02 136.434L1392.14 137.806C1393.51 136.434 1396.25 135.061 1400.37 135.061H1403.11C1401.74 137.806 1398.99 139.179 1396.25 141.925C1394.88 144.67 1397.62 144.67 1398.99 144.67L1401.74 143.297L1404.48 140.552C1405.85 139.179 1407.22 139.179 1408.6 140.552C1409.97 139.179 1414.08 139.179 1415.45 139.179C1418.2 140.552 1415.45 141.925 1414.08 141.925C1412.71 143.297 1414.08 144.67 1415.45 144.67H1419.57L1420.94 141.925V136.434L1415.45 135.061V129.57C1419.57 126.824 1426.43 125.452 1425.05 118.588ZM1429.17 124.079C1429.17 141.925 1414.08 157.025 1396.25 157.025C1378.42 157.025 1363.33 141.925 1363.33 124.079V107.606H1430.54V124.079H1429.17ZM1360.59 74.6594V124.079C1360.59 143.297 1377.05 159.771 1396.25 159.771C1415.45 159.771 1431.91 143.297 1431.91 124.079V74.6594H1360.59Z" fill="white"/>
<path d="M1396.25 95.2509L1400.37 99.3692L1398.99 93.8781L1403.11 89.7598H1397.62L1396.25 84.2688L1393.51 89.7598H1389.39L1393.51 93.8781L1390.77 99.3692L1396.25 95.2509Z" fill="#00367C"/>
</g>
<defs>
<clipPath id="clip0_2489_4747">
<rect width="1746" height="251" fill="white"/>
</clipPath>
</defs>
</svg>
